<svg xmlns="http://www.w3.org/2000/svg" width="622" height="68.969" viewBox="0 0 622 68.969">
  <defs>
    <style>
      .cls-1 {
        fill-rule: evenodd;
      }
    </style>
  </defs>
  <path id="形状_1" data-name="形状 1" class="cls-1" d="M813.95,465.784q-16.98,26.531-33.96,53.062a2.444,2.444,0,0,1-2.058,1.131h-9.949a1.468,1.468,0,0,1-1.29-.771,1.489,1.489,0,0,1,.055-1.509l41.97-65.578a2.447,2.447,0,0,1,2.058-1.129h9.045a2.443,2.443,0,0,1,2.087,1.176l39.936,65.559a1.488,1.488,0,0,1,.029,1.5,1.466,1.466,0,0,1-1.281.756H810.341a1.468,1.468,0,0,1-1.29-.771,1.489,1.489,0,0,1,.055-1.509l5.387-8.417a2.443,2.443,0,0,1,2.058-1.13H839.6a1.468,1.468,0,0,0,1.282-.756,1.488,1.488,0,0,0-.029-1.5l-24.42-40.086m-2.487-.028a1.464,1.464,0,0,1,2.487.028m411.473,54.164h18.61a24.4,24.4,0,0,0,17.31-7.216,24.723,24.723,0,0,0,7.17-17.422v-19.71a24.723,24.723,0,0,0-7.17-17.422,24.4,24.4,0,0,0-17.31-7.216h-18.61a2.459,2.459,0,0,0-2.45,2.463v6.9a2.46,2.46,0,0,0,2.45,2.465h18.61a12.7,12.7,0,0,1,9,3.752,12.842,12.842,0,0,1,3.73,9.059v19.71a12.842,12.842,0,0,1-3.73,9.059,12.7,12.7,0,0,1-9,3.752h-18.61a2.46,2.46,0,0,0-2.45,2.464v6.9a2.459,2.459,0,0,0,2.45,2.464m-11.75,0h-18.6a24.384,24.384,0,0,1-17.31-7.216,24.69,24.69,0,0,1-7.18-17.422v-19.71a24.69,24.69,0,0,1,7.18-17.422,24.384,24.384,0,0,1,17.31-7.216h18.6a2.459,2.459,0,0,1,2.45,2.463v6.9a2.46,2.46,0,0,1-2.45,2.465h-18.6a12.7,12.7,0,0,0-9.01,3.752,12.875,12.875,0,0,0-3.72,9.059v19.71a12.875,12.875,0,0,0,3.72,9.059,12.7,12.7,0,0,0,9.01,3.752h18.6a2.46,2.46,0,0,1,2.45,2.464v6.9a2.459,2.459,0,0,1-2.45,2.464M1071.13,450.99h-6.85a2.452,2.452,0,0,0-2.45,2.463v64.059a2.453,2.453,0,0,0,2.45,2.464h6.85a2.459,2.459,0,0,0,2.45-2.464V453.453a2.459,2.459,0,0,0-2.45-2.463m63.17,57.159h4.99a2.458,2.458,0,0,0,2.45-2.462V453.453a2.452,2.452,0,0,1,2.45-2.463h6.85a2.459,2.459,0,0,1,2.45,2.463v64.059a2.459,2.459,0,0,1-2.45,2.464h-22.43a2.925,2.925,0,0,1-2.36-1.2q-24-32.715-48.01-65.431a1.529,1.529,0,0,1-.13-1.544,1.475,1.475,0,0,1,1.32-.812h11.69q20.61,28.08,41.21,56.16a2.437,2.437,0,0,0,1.97,1M890.946,519.976h-6.854a2.456,2.456,0,0,1-2.449-2.464V453.453a2.456,2.456,0,0,1,2.449-2.463h6.854a2.456,2.456,0,0,1,2.448,2.463v64.059a2.456,2.456,0,0,1-2.448,2.464m94.11-33.508h8.223a17.558,17.558,0,0,0,12.461-5.195,17.8,17.8,0,0,0,0-25.087,17.553,17.553,0,0,0-12.461-5.2H915.427a2.456,2.456,0,0,0-2.448,2.463v6.9a2.457,2.457,0,0,0,2.448,2.465H991.32a5.855,5.855,0,0,1,4.154,1.731,5.937,5.937,0,0,1,0,8.362,5.856,5.856,0,0,1-4.154,1.732H915.427a2.456,2.456,0,0,0-2.448,2.464v40.406a2.456,2.456,0,0,0,2.448,2.464h6.855a2.456,2.456,0,0,0,2.449-2.464v-28.58a2.455,2.455,0,0,1,2.447-2.464h39.293a2.44,2.44,0,0,1,1.875.88q13.167,15.786,26.335,31.572a2.929,2.929,0,0,0,2.25,1.056h10.819a1.476,1.476,0,0,0,1.13-2.428q-12.285-14.73-24.574-29.46a0.991,0.991,0,0,1-.138-1.051,0.98,0.98,0,0,1,.888-0.569m57.184,31.044V453.453a2.46,2.46,0,0,0-2.45-2.464h-6.85a2.46,2.46,0,0,0-2.45,2.464v64.059a2.458,2.458,0,0,0,2.45,2.464h6.85a2.458,2.458,0,0,0,2.45-2.464m-297.762-54.7h-93.03A2.456,2.456,0,0,1,649,460.352v-6.9a2.456,2.456,0,0,1,2.448-2.463h93.03a2.456,2.456,0,0,1,2.448,2.463v6.9a2.456,2.456,0,0,1-2.448,2.464M649,517.512V482.034a2.456,2.456,0,0,1,2.449-2.464h93.03a2.455,2.455,0,0,1,2.447,2.464v6.9a2.454,2.454,0,0,1-2.447,2.463H663.2a2.456,2.456,0,0,0-2.448,2.463v23.653a2.455,2.455,0,0,1-2.448,2.464h-6.854A2.455,2.455,0,0,1,649,517.512" transform="translate(-649 -451)"/>
</svg>
