<?xml version="1.0" encoding="UTF-8" standalone="yes"?>
<svg width="200.715" height="16.861" viewBox="0 0 200.715 16.861" version="1.2" baseProfile="tiny-ps" xmlns="http://www.w3.org/2000/svg">
  <title>FAULHABER</title>
  <g transform="translate(-29.063 -31.827)">
    <g transform="translate(29.063 31.827)">
      <path d="M29.412,48.3,51.055,31.83l1.121.858L31.66,48.3Z" transform="translate(-29.164 -31.828)" fill="#0082cb"></path>
      <path d="M89.874,33.236l-1.829-1.4h1.829Z" transform="translate(-46.24 -31.829)" fill="#0082cb"></path>
      <path d="M84.049,31.835,88.058,34.9v1.715l-6.249-4.784Z" transform="translate(-44.424 -31.829)" fill="#0082cb"></path>
      <path d="M77.815,31.835l8.427,6.452V40L75.574,31.835Z" transform="translate(-42.608 -31.829)" fill="#0082cb"></path>
      <path d="M71.547,31.835l12.87,9.852V43.4L69.306,31.835Z" transform="translate(-40.783 -31.829)" fill="#0082cb"></path>
      <path d="M65.178,31.835,82.561,45.144v1.715L62.937,31.835Z" transform="translate(-38.928 -31.829)" fill="#0082cb"></path>
      <path d="M55.687,31.827l-1.122.856-1.117-.856Z" transform="translate(-36.164 -31.827)" fill="#0082cb"></path>
      <path d="M50.378,34.439l-3.406-2.61h2.24L51.5,33.583Z" transform="translate(-34.278 -31.827)" fill="#0082cb"></path>
      <path d="M46.189,36.195l-5.7-4.365h2.241l4.58,3.509Z" transform="translate(-32.391 -31.827)" fill="#0082cb"></path>
      <path d="M42,37.95l-7.99-6.121h2.24l6.872,5.265Z" transform="translate(-30.503 -31.827)" fill="#0082cb"></path>
      <path d="M38.258,39.706l-9.195-7.042v-.834h1.152l9.165,7.02Z" transform="translate(-29.063 -31.827)" fill="#0082cb"></path>
      <path d="M35.956,42.546l-6.894-5.277V35.555l8.016,6.136Z" transform="translate(-29.063 -32.912)" fill="#0082cb"></path>
      <path d="M33.655,45.747l-4.591-3.514V40.517l5.713,4.374Z" transform="translate(-29.063 -34.358)" fill="#0082cb"></path>
      <path d="M31.353,48.947l-2.29-1.753V45.479l3.412,2.612Z" transform="translate(-29.063 -35.803)" fill="#0082cb"></path>
      <path d="M30.174,51.292l-1.111.847v-1.7Z" transform="translate(-29.063 -37.248)" fill="#0082cb"></path>
      <path d="M55.193,34.274l1.121.858L38.094,49.009H35.848Z" transform="translate(-31.039 -32.539)" fill="#0082cb"></path>
      <path d="M42.207,49.721l17.1-13,1.121.858L44.491,49.721Z" transform="translate(-32.891 -33.251)" fill="#0082cb"></path>
      <path d="M48.666,50.434,63.454,39.166l1.121.858L50.913,50.434Z" transform="translate(-34.772 -33.964)" fill="#0082cb"></path>
      <path d="M55.074,51.146l12.512-9.534,1.121.858L57.321,51.146Z" transform="translate(-36.638 -34.676)" fill="#0082cb"></path>
      <path d="M61.481,51.859l10.236-7.8,1.121.857-9.11,6.942Z" transform="translate(-38.504 -35.389)" fill="#0082cb"></path>
      <path d="M76.969,47.363l-6.835,5.208H67.887L75.848,46.5Z" transform="translate(-40.369 -36.101)" fill="#0082cb"></path>
      <path d="M74.29,53.283l5.686-4.332,1.121.858-4.56,3.474Z" transform="translate(-42.234 -36.814)" fill="#0082cb"></path>
      <path d="M80.694,54,84.1,51.4l1.121.857L82.94,54Z" transform="translate(-44.099 -37.526)" fill="#0082cb"></path>
      <path d="M87.1,54.707l1.137-.867,1.136.868Z" transform="translate(-45.964 -38.238)" fill="#0082cb"></path>
    </g>
  </g>
</svg>