<svg width="32" height="32" viewBox="0 0 32 32" fill="none" xmlns="http://www.w3.org/2000/svg">
<rect width="32" height="32" fill="#00173A"/>
<path d="M27 6.16764V7.49972C26.9989 7.53561 26.9864 7.57017 26.9644 7.5982L21.008 15.4248C20.9857 15.4526 20.9735 15.4874 20.9735 15.5233C20.9735 15.5592 20.9857 15.594 21.008 15.6218L26.9644 23.3966C26.9864 23.4247 26.9989 23.4592 27 23.4951V24.8324C26.9993 24.8657 26.9891 24.8981 26.9706 24.9256C26.9521 24.9531 26.9261 24.9745 26.8959 24.9872C26.8656 24.9998 26.8323 25.0032 26.8002 24.9969C26.768 24.9906 26.7384 24.9748 26.7149 24.9516L16.6503 15.627C16.6331 15.6124 16.6194 15.5942 16.6099 15.5736C16.6005 15.553 16.5956 15.5305 16.5956 15.5078C16.5956 15.485 16.6005 15.4626 16.6099 15.442C16.6194 15.4214 16.6331 15.4032 16.6503 15.3886L26.7149 6.04842C26.7384 6.02518 26.768 6.00943 26.8002 6.00311C26.8323 5.99678 26.8656 6.00016 26.8959 6.01283C26.9261 6.02549 26.9521 6.04689 26.9706 6.07439C26.9891 6.1019 26.9993 6.13431 27 6.16764V6.16764ZM6.00015 6.16764V7.49972C5.99931 7.51773 6.00204 7.53572 6.00816 7.55264C6.01428 7.56955 6.02367 7.58505 6.03578 7.5982L11.9921 15.4248C12.0144 15.4526 12.0266 15.4874 12.0266 15.5233C12.0266 15.5592 12.0144 15.594 11.9921 15.6218L6.03578 23.3966C6.02367 23.4098 6.01428 23.4253 6.00816 23.4422C6.00204 23.4591 5.99931 23.4771 6.00015 23.4951V24.8324C6.0008 24.8657 6.011 24.8981 6.0295 24.9256C6.04801 24.9531 6.074 24.9745 6.10428 24.9872C6.13457 24.9998 6.16783 25.0032 6.19998 24.9969C6.23213 24.9906 6.26176 24.9748 6.28523 24.9516L16.3703 15.627C16.3874 15.6124 16.4011 15.5942 16.4106 15.5736C16.42 15.553 16.4249 15.5305 16.4249 15.5078C16.4249 15.485 16.42 15.4626 16.4106 15.442C16.4011 15.4214 16.3874 15.4032 16.3703 15.3886L6.28523 6.04842C6.26176 6.02518 6.23213 6.00943 6.19998 6.00311C6.16783 5.99678 6.13457 6.00016 6.10428 6.01283C6.074 6.02549 6.04801 6.04689 6.0295 6.07439C6.011 6.1019 6.0008 6.13431 6.00015 6.16764" fill="#D52316"/>
</svg>
