<svg id="图层_1" data-name="图层 1" xmlns="http://www.w3.org/2000/svg" viewBox="0 0 24 24"><defs><style>.cls-1{fill:#ff7a00;}</style></defs><title>head_icon_24px</title><path d="M111,91.93a.7.7,0,0,0-.7.7V96.3a.7.7,0,0,0,.7.7h1.4a.7.7,0,0,0,.7-.7V92.63a.7.7,0,0,0-.7-.7Z" transform="translate(-96 -85)"/><path d="M108,85a12,12,0,1,0,11.56,15.28.13.13,0,0,1,0-.06c0-.12.07-.23.1-.35.17-1-.73-1.05-1-1.05h-.33a2.22,2.22,0,0,1,.48,1.38,2.27,2.27,0,0,1-2.27,2.27,2.19,2.19,0,0,1-1-.24,9.19,9.19,0,1,1,1.62-5.81h0a.59.59,0,0,0,.65.57h1.65c.18,0,.49-.13.5-.66A12,12,0,0,0,108,85Z" transform="translate(-96 -85)"/><path class="cls-1" d="M116.43,98.26l-9.62.53a2.38,2.38,0,0,1,.14.76,2.24,2.24,0,0,1-1.22,2,6.73,6.73,0,0,0,1.06.08h.49l9.15.53a1.94,1.94,0,0,0,0-3.88Zm0,3a1.1,1.1,0,1,1,1.1-1.1A1.1,1.1,0,0,1,116.43,101.3Z" transform="translate(-96 -85)"/><path class="cls-1" d="M106.66,99.55a1.94,1.94,0,1,0-1.94,1.94A1.94,1.94,0,0,0,106.66,99.55Zm-1.94,1.1a1.1,1.1,0,1,1,1.1-1.1A1.1,1.1,0,0,1,104.72,100.65Z" transform="translate(-96 -85)"/><path class="cls-1" d="M105.41,91.93H105v.59a1,1,0,0,1,.55.94.83.83,0,1,1-1.61,0,1,1,0,0,1,.56-.94v-.59H104a.7.7,0,0,0-.7.7v5.19a2.2,2.2,0,0,1,2.79,0V92.63A.7.7,0,0,0,105.41,91.93Z" transform="translate(-96 -85)"/></svg>