<svg width="183" height="60" viewBox="0 0 183 60" fill="none" xmlns="http://www.w3.org/2000/svg">
<path d="M31.9612 51.3217C32.4544 51.2821 32.8705 51.6784 32.8705 52.1714V59.1478C32.8705 59.5962 32.5242 59.9728 32.0833 60H32.0658C31.5651 60.0273 31.1416 59.6482 31.1416 59.1478V52.1714C31.1416 51.7206 31.4953 51.3589 31.9462 51.3217H31.9637" fill="#D32720"/>
<path d="M28.6088 51.3218C29.0597 51.3564 29.4134 51.7206 29.4134 52.1715V59.1478C29.4134 59.6458 28.9899 60.0248 28.4967 60.0001H28.4792C28.0283 59.9753 27.6846 59.5962 27.6846 59.1478V52.1715C27.6846 51.681 28.1006 51.2846 28.5938 51.3218H28.6113" fill="#D32720"/>
<path d="M47.9619 17.862C47.6829 17.4581 47.82 16.9007 48.2459 16.6555L54.3218 13.1673C54.7105 12.9443 55.2137 13.0533 55.4578 13.42L55.4653 13.4349C55.7393 13.8535 55.6197 14.4085 55.1863 14.6587L49.1104 18.1469C48.7193 18.3723 48.226 18.2484 47.9694 17.8793C47.9669 17.8744 47.9619 17.8694 47.9595 17.8644" fill="#D32720"/>
<path d="M49.6407 20.7532C49.4464 20.3469 49.5859 19.8613 49.977 19.6359L56.0529 16.1477C56.4864 15.8975 57.0294 16.0734 57.2536 16.5119C57.2586 16.5193 57.2611 16.5267 57.2611 16.5267C57.4629 16.9281 57.3059 17.4136 56.9173 17.6391L50.8414 21.1273C50.4129 21.3725 49.8599 21.2115 49.6482 20.768C49.6457 20.7631 49.6432 20.7581 49.6407 20.7532Z" fill="#D32720"/>
<path d="M10.615 20.6911C10.4032 21.1346 9.84771 21.2956 9.42173 21.0504L3.34582 17.5622C2.9572 17.3392 2.80026 16.8512 2.99706 16.4573C3.00204 16.4498 3.00703 16.4424 3.00703 16.4424C3.23621 15.9965 3.77679 15.8206 4.21025 16.0708L10.2862 19.559C10.6773 19.7844 10.8168 20.27 10.6225 20.6763C10.62 20.6812 10.6175 20.6862 10.615 20.6911Z" fill="#D32720"/>
<path d="M12.2913 17.8001C12.0347 18.1717 11.5414 18.2931 11.1503 18.0677L5.07441 14.5795C4.64095 14.3293 4.52138 13.7768 4.79042 13.3631C4.7954 13.3557 4.80039 13.3483 4.80039 13.3483C5.04701 12.9742 5.55022 12.8652 5.93884 13.0881L12.0147 16.5763C12.4432 16.8216 12.5802 17.379 12.2987 17.7828C12.2962 17.7877 12.2913 17.7927 12.2888 17.7977" fill="#D32720"/>
<path d="M60.5469 30.1078C60.5469 31.5694 60.4423 33.0063 60.243 34.4085C59.8968 36.8091 59.2665 39.1057 58.3821 41.2808C57.301 43.9812 55.8387 46.4858 54.0575 48.7303C49.3617 54.6563 42.4662 58.7861 34.5967 59.9133V53.4572C34.5967 52.1888 35.4063 51.0393 36.627 50.6652C40.4633 49.4909 43.8513 47.2786 46.4471 44.3602C48.3677 42.2173 49.8549 39.6978 50.7792 36.9206C51.0557 36.1031 51.2898 35.2682 51.4617 34.4085C51.7482 33.0237 51.8952 31.5793 51.8952 30.1078C51.8952 28.6362 51.7482 27.2018 51.4617 25.807C51.4294 25.6559 51.397 25.5073 51.3621 25.3586C51.0706 24.1001 51.6386 22.8019 52.7621 22.1553L58.3797 18.9323C59.2615 21.1099 59.8943 23.4064 60.2405 25.8045C60.4398 27.2067 60.5445 28.6436 60.5445 30.1053" fill="#D32720"/>
<path d="M0 30.1078C0 31.5694 0.104628 33.0063 0.301429 34.4085C0.647698 36.8091 1.27796 39.1057 2.15982 41.2808C3.24098 43.9812 4.70328 46.4858 6.48445 48.7303C11.1803 54.6563 18.0758 58.7861 25.9453 59.9133V53.4572C25.9453 52.1888 25.1357 51.0393 23.915 50.6652C20.0786 49.4909 16.6907 47.2786 14.0949 44.3602C12.1742 42.2173 10.687 39.6978 9.7628 36.9206C9.48628 36.1031 9.25212 35.2682 9.08023 34.4085C8.79375 33.0237 8.64677 31.5793 8.64677 30.1078C8.64677 28.6362 8.79375 27.2018 9.08023 25.807C9.11261 25.6559 9.145 25.5073 9.17987 25.3586C9.47134 24.1001 8.90336 22.8019 7.77985 22.1553L2.16231 18.9323C1.28045 21.1099 0.647698 23.4064 0.30392 25.8045C0.104628 27.2067 0.00249115 28.6436 0.00249115 30.1053" fill="#D32720"/>
<path d="M54.0602 11.4827L48.4302 14.7157C47.2892 15.3698 45.8718 15.174 44.9027 14.2871C42.0603 11.6834 38.5229 9.82782 34.5993 9.03258C33.1993 8.75015 31.7545 8.60399 30.2747 8.60399C28.795 8.60399 27.3501 8.75015 25.9501 9.03258C22.0265 9.82782 18.4891 11.6834 15.6467 14.2871C14.6777 15.174 13.2602 15.3722 12.1192 14.7157L6.48926 11.4827C11.1826 5.55679 18.0781 1.42698 25.9476 0.299765C27.3576 0.101573 28.8025 0 30.2722 0C31.742 0 33.1869 0.104051 34.5969 0.299765C42.4689 1.42698 49.3619 5.55679 54.0577 11.4827" fill="#D32720"/>
<path d="M46.3156 29.9418C46.3729 36.5886 41.976 42.7623 35.7058 44.9597C35.0132 45.2075 34.2833 44.6823 34.2833 43.9514V36.2913C34.2833 35.6373 33.9346 35.0279 33.3716 34.6934C33.0627 34.5101 32.7812 34.3392 32.5644 34.2078C32.2705 34.027 31.9317 33.9329 31.5854 33.9329H28.9647C28.616 33.9329 28.2747 34.0295 27.9782 34.2128C27.6943 34.3887 27.4128 34.5596 27.1636 34.7083C26.6006 35.0452 26.2594 35.6472 26.2594 36.3012V43.9514C26.2594 44.6823 25.5294 45.2075 24.8369 44.9597C18.5667 42.7648 14.1698 36.5911 14.2271 29.9418C14.1698 23.2999 18.5667 17.1188 24.8369 14.9263C25.5294 14.6786 26.2594 15.2038 26.2594 15.9346V23.8003C26.2594 24.4667 26.6206 25.0836 27.201 25.4156C27.3928 25.5246 27.5647 25.6237 27.7092 25.7054C27.9932 25.8689 28.3121 25.9507 28.6409 25.9507H31.9217C32.258 25.9507 32.5869 25.859 32.8758 25.6906C33.0452 25.5915 33.2096 25.4949 33.3591 25.4057C33.9321 25.0712 34.2808 24.4618 34.2808 23.8028V15.9321C34.2808 15.2013 35.0107 14.6761 35.7033 14.9238C41.9735 17.1163 46.3704 23.2974 46.3131 29.9393" fill="#D32720"/>
<path d="M75.3651 35.8429C76.5434 35.8429 77.6146 35.9569 78.5811 36.1823C79.5477 36.4077 80.3748 36.8388 81.0648 37.473C81.7548 38.1072 82.2929 38.9941 82.6791 40.1288C83.0627 41.2659 83.257 42.735 83.257 44.5385C83.257 46.2257 83.0652 47.6254 82.6791 48.7353C82.2929 49.8451 81.7573 50.7345 81.0648 51.4034C80.3748 52.0723 79.5452 52.543 78.5811 52.818C77.6146 53.093 76.5434 53.2317 75.3651 53.2317H70.6543V35.8429H75.3651ZM75.3177 51.2523C76.1647 51.2523 76.942 51.1482 77.6494 50.9401C78.3569 50.732 78.9648 50.3728 79.4754 49.8625C79.9861 49.3521 80.3772 48.6634 80.6538 47.7963C80.9278 46.9268 81.0648 45.8417 81.0648 44.5385C81.0648 43.1512 80.9203 42.0215 80.6288 41.1445C80.3374 40.2675 79.9363 39.5838 79.4281 39.0908C78.9174 38.5978 78.3121 38.2608 77.6146 38.0775C76.917 37.8942 76.1498 37.8025 75.3177 37.8025H72.7743V51.2572H75.3177V51.2523Z" fill="black"/>
<path d="M89.8081 45.7649L84.0361 35.8429H86.4849L90.8918 43.7111H91.0313L95.4132 35.8429H97.7449L91.9281 45.7401V53.2317H89.8081V45.7649Z" fill="black"/>
<path d="M100 35.8429H103.321L110.764 50.2737H110.906V35.8429H113.026V53.2317H110.224L102.215 37.9239H102.073V53.2317H100V35.8429Z" fill="black"/>
<path d="M127.116 48.0441H119.884L118.093 53.2293H115.926L122.121 35.8405H124.949L131.119 53.2293H128.882L127.116 48.0441ZM126.433 46.0399L123.678 37.9462H123.397L120.594 46.0399H126.436H126.433Z" fill="black"/>
<path d="M134.021 35.8429H137.412L141.582 47.0432H141.722L145.892 35.8429H149.235V53.2317H147.115V38.1246H146.975L142.783 49.2976H140.474L136.234 38.1246H136.094V53.2317H134.021V35.8429Z" fill="black"/>
<path d="M154.257 35.8429H152.137V53.2317H154.257V35.8429Z" fill="black"/>
<path d="M164.6 53.482C163.469 53.482 162.447 53.3582 161.538 53.1055C160.626 52.8553 159.847 52.3994 159.194 51.7404C158.541 51.0814 158.041 50.1698 157.687 49.0103C157.333 47.8484 157.156 46.3595 157.156 44.5386C157.156 42.8689 157.336 41.4617 157.697 40.3172C158.058 39.1726 158.569 38.251 159.229 37.5474C159.889 36.8463 160.694 36.3459 161.643 36.0437C162.592 35.7439 163.656 35.5928 164.834 35.5928C165.589 35.5928 166.244 35.6349 166.799 35.7191C167.357 35.8034 167.878 35.9272 168.366 36.0932V38.1742C167.896 37.9909 167.377 37.8447 166.812 37.7357C166.246 37.6267 165.601 37.5722 164.881 37.5722C163.955 37.5722 163.145 37.6886 162.455 37.924C161.765 38.1594 161.192 38.5458 160.736 39.0884C160.28 39.6309 159.939 40.3419 159.712 41.2189C159.485 42.0959 159.371 43.186 159.371 44.4891C159.371 45.8764 159.476 47.016 159.69 47.9079C159.902 48.8022 160.223 49.5108 160.656 50.0385C161.087 50.5637 161.638 50.9328 162.305 51.1409C162.973 51.3515 163.763 51.453 164.672 51.453C165.442 51.453 166.124 51.3985 166.722 51.2895C167.32 51.1805 167.93 51.0096 168.561 50.7767V52.7314C168.105 52.9494 167.539 53.1278 166.864 53.269C166.189 53.4102 165.434 53.482 164.602 53.482" fill="black"/>
<path d="M176.311 53.482C175.808 53.482 175.31 53.4621 174.817 53.42C174.323 53.3779 173.86 53.3234 173.426 53.259C172.995 53.1921 172.609 53.1203 172.273 53.0459C171.934 52.9716 171.665 52.8923 171.461 52.8081V50.7296C171.698 50.8287 171.994 50.9253 172.355 51.0169C172.716 51.1086 173.11 51.1928 173.534 51.2672C173.957 51.3415 174.405 51.4009 174.876 51.4431C175.347 51.4852 175.825 51.505 176.314 51.505C177.539 51.505 178.464 51.287 179.094 50.8534C179.722 50.4199 180.035 49.6593 180.035 48.5742C180.035 48.0391 179.983 47.5932 179.884 47.234C179.781 46.8747 179.59 46.57 179.306 46.3198C179.022 46.0696 178.638 45.8516 178.152 45.6683C177.664 45.4849 177.036 45.2942 176.266 45.0935C175.434 44.8755 174.727 44.65 174.146 44.4172C173.566 44.1843 173.095 43.887 172.734 43.5278C172.373 43.1686 172.109 42.7301 171.944 42.2123C171.78 41.6945 171.698 41.0529 171.698 40.2824C171.698 38.6969 172.141 37.5152 173.028 36.7373C173.915 35.9618 175.285 35.5729 177.138 35.5729C177.529 35.5729 177.928 35.5902 178.327 35.6224C178.728 35.6546 179.111 35.7017 179.48 35.7612C179.849 35.8206 180.187 35.885 180.494 35.9618C180.8 36.0362 181.047 36.1154 181.236 36.1997V38.2534C180.765 38.0701 180.153 37.9066 179.398 37.7654C178.643 37.6242 177.898 37.5523 177.161 37.5523C176.595 37.5523 176.099 37.5895 175.676 37.6663C175.252 37.7406 174.899 37.8793 174.615 38.08C174.333 38.2807 174.124 38.5557 173.989 38.9074C173.857 39.2568 173.79 39.7176 173.79 40.2849C173.79 40.6862 173.825 41.0331 173.897 41.3254C173.967 41.6177 174.121 41.8729 174.356 42.0909C174.592 42.3089 174.929 42.5046 175.37 42.6805C175.808 42.8564 176.398 43.0348 177.136 43.2181C178.045 43.451 178.82 43.6987 179.455 43.9564C180.09 44.2165 180.606 44.546 180.997 44.9449C181.391 45.3462 181.672 45.8342 181.847 46.4115C182.018 46.9887 182.106 47.7022 182.106 48.5519C182.106 50.2564 181.615 51.505 180.633 52.2978C179.652 53.0905 178.212 53.4869 176.311 53.4869" fill="black"/>
<path d="M84.2883 10.0681V27.5114H80.721V19.7944H74.2465V27.5114H70.6543V10.0681H74.2465V16.6035H80.721V10.0681H84.2883Z" fill="black"/>
<path d="M93.8688 27.7642C92.7652 27.7642 91.7887 27.6626 90.9367 27.462C90.0872 27.2613 89.3698 26.9293 88.7868 26.4685C88.2039 26.0077 87.763 25.3909 87.464 24.6204C87.1651 23.8499 87.0156 22.8862 87.0156 21.7293V10.0657H90.6079V21.3007C90.6079 21.8209 90.6552 22.2817 90.7499 22.6831C90.8445 23.0869 91.0164 23.4213 91.2705 23.6889C91.5221 23.9565 91.8609 24.1596 92.2869 24.2909C92.7129 24.4247 93.246 24.4916 93.8937 24.4916C94.5414 24.4916 95.1218 24.4148 95.5478 24.2661C95.9713 24.115 96.3076 23.902 96.5517 23.6245C96.7959 23.347 96.9653 23.0126 97.0599 22.6187C97.1546 22.2248 97.2019 21.7863 97.2019 21.2982V10.0632H100.772V21.7268C100.772 22.7995 100.617 23.7162 100.311 24.4792C100.004 25.2422 99.5536 25.8665 98.9632 26.3521C98.3728 26.8377 97.6503 27.1944 96.8008 27.4199C95.9514 27.6453 94.9748 27.7593 93.8713 27.7593" fill="black"/>
<path d="M114.005 23.1884H107.341L105.924 27.5115H102.189L108.31 10.0657H113.131L119.204 27.5115H115.398L114.005 23.1884ZM112.966 20.0223L110.839 13.4126H110.555L108.38 20.0223H112.966Z" fill="black"/>
<path d="M123.82 20.5995L117.863 10.0681H122.068L125.591 17.0296H125.733L129.372 10.0681H133.413L127.434 20.5252V27.5114H123.82V20.5995Z" fill="black"/>
<path d="M137.055 14.9362C138.046 14.9362 138.851 15.6918 138.851 16.6208V27.5114H135.259V16.6208C135.259 15.6893 136.063 14.9362 137.055 14.9362Z" fill="black"/>
<path d="M137.055 10.083C138.046 10.083 138.851 10.8832 138.851 11.8692C138.851 12.8552 138.046 13.6554 137.055 13.6554C136.063 13.6554 135.259 12.8552 135.259 11.8692C135.259 10.8832 136.063 10.083 137.055 10.083Z" fill="#D32720"/>
</svg>
