<svg width="250" height="60" viewBox="0 0 250 60" fill="none" xmlns="http://www.w3.org/2000/svg">
<g clip-path="url(#clip0_1_20)">
<path d="M8.62844 17.2064C13.3938 17.2064 17.2569 13.3546 17.2569 8.60318C17.2569 3.85177 13.3938 0 8.62844 0C3.86309 0 0 3.85177 0 8.60318C0 13.3546 3.86309 17.2064 8.62844 17.2064Z" fill="#F0F7FD"/>
<path d="M17.2489 51.3254C17.2489 56.4127 12.8193 60.4881 7.59563 59.881C3.81074 59.4405 0.66462 56.3968 0.107432 52.6409C-0.409956 49.1528 1.17405 46.002 3.77492 44.2401C4.82561 43.5278 5.53205 42.4167 5.53205 41.1508V40.3016C5.53205 38.9901 4.80174 37.8393 3.72119 37.0933C1.4805 35.5496 0.0099247 32.9722 0.0099247 30.0437C0.0099247 25.2758 3.86845 21.4286 8.63041 21.4286C13.3924 21.4286 17.2509 25.2758 17.2509 30.0437C17.2509 32.9742 15.7803 35.5516 13.5416 37.0933C12.4591 37.8393 11.7308 38.9901 11.7308 40.3016V41.0695C11.7308 42.381 12.4611 43.5318 13.5416 44.2778C15.7803 45.8195 17.2509 48.3968 17.2509 51.3274L17.2489 51.3254Z" fill="#F0F7FD"/>
<path d="M29.9866 60.002C34.752 60.002 38.615 56.1502 38.615 51.3988C38.615 46.6474 34.752 42.7957 29.9866 42.7957C25.2212 42.7957 21.3582 46.6474 21.3582 51.3988C21.3582 56.1502 25.2212 60.002 29.9866 60.002Z" fill="#F0F7FD"/>
<path d="M59.9792 30.1052C59.9792 35.5 54.9964 39.7321 49.3389 38.4782C46.3062 37.8055 43.8108 35.4206 43.0248 32.4246C41.988 28.4821 43.6934 24.8055 46.6445 22.8829C47.731 22.1746 48.4673 21.0436 48.4673 19.75V19.2083C48.4673 17.9206 47.8763 16.6567 46.7818 15.9762C45.7311 15.3214 44.8356 14.4484 44.1571 13.4206C43.5064 12.4325 42.4676 11.7718 41.2836 11.7718H40.209C38.9414 11.7718 37.823 12.4682 37.1146 13.5159C36.5057 14.4147 35.7316 15.1905 34.8341 15.7976C33.7894 16.5059 33.0949 17.6171 33.0949 18.877V19.8968C33.0949 21.1587 33.7934 22.2698 34.8381 22.9821C37.4649 24.7738 39.0588 27.9762 38.5056 31.494C37.9166 35.244 34.7386 38.248 30.9517 38.6508C25.7381 39.2063 21.3542 35.1686 21.3542 30.1071C21.3542 27.1567 22.8486 24.5436 25.1391 22.9921C26.1838 22.2857 26.8763 21.1726 26.8763 19.9147V18.8651C26.8763 17.5972 26.1719 16.4821 25.1192 15.7718C22.4626 13.9762 20.8865 10.7301 21.4815 7.1984C22.0885 3.5734 25.1072 0.6488 28.7568 0.148799C32.2273 -0.327391 35.3555 1.23412 37.1087 3.81943C37.8171 4.86507 38.9275 5.56745 40.1931 5.56745H41.1383C42.4039 5.56745 43.5143 4.86309 44.2247 3.81745C45.9779 1.23015 49.1101 -0.331359 52.5825 0.148799C56.2122 0.6488 59.221 3.54563 59.8459 7.14682C60.4508 10.6349 58.9385 13.8452 56.3615 15.6726C55.3526 16.3869 54.6839 17.4821 54.6839 18.7143V20.0575C54.6839 21.2837 55.3426 22.375 56.3436 23.0873C58.5484 24.6528 59.9792 27.2163 59.9792 30.1032V30.1052Z" fill="#F0F7FD"/>
<path d="M51.3468 60.002C56.1122 60.002 59.9753 56.1502 59.9753 51.3988C59.9753 46.6474 56.1122 42.7957 51.3468 42.7957C46.5815 42.7957 42.7184 46.6474 42.7184 51.3988C42.7184 56.1502 46.5815 60.002 51.3468 60.002Z" fill="#F0F7FD"/>
<path d="M78.2948 28.7361H74.1577V2.61902H78.2948V28.7381V28.7361Z" fill="#F0F7FD"/>
<path d="M105.046 28.7361H100.928L89.9798 12.3552C89.5141 11.6588 88.4236 11.9861 88.4236 12.8254V28.7381H84.2865V2.61908H88.4236L99.3723 19C99.838 19.6965 100.928 19.3691 100.928 18.5298V2.61908H105.046V28.7381V28.7361Z" fill="#F0F7FD"/>
<path d="M123.186 28.7361H119.069V8.40479C119.069 7.47622 118.315 6.72424 117.383 6.72424H110.747V2.61908H131.506V6.72622H124.87C123.938 6.72622 123.184 7.47821 123.184 8.40678V28.7381L123.186 28.7361Z" fill="#F0F7FD"/>
<path d="M158.665 6.72622H137.886V2.61908H158.665V6.72622ZM158.665 28.7361H139.563C138.638 28.7361 137.886 27.9881 137.886 27.0635V15.3215C137.886 14.383 138.648 13.623 139.589 13.623H157.246V17.7302H142.025V24.629H158.667V28.7361H158.665Z" fill="#F0F7FD"/>
<path d="M178.21 28.7361H166.088C165.14 28.7361 164.372 27.9703 164.372 27.0258V15.6746H168.489V24.627H178.21C179.741 24.627 180.994 23.379 180.994 21.8512V9.5159C180.994 7.98019 179.733 6.72225 178.192 6.72225H164.374V2.61908H178.212C182.019 2.61908 185.133 5.72424 185.133 9.51987V21.8373C185.133 25.633 182.019 28.7381 178.212 28.7381L178.21 28.7361Z" fill="#F0F7FD"/>
<path d="M194.978 28.7361H190.841V2.61908H194.978V28.7381V28.7361Z" fill="#F0F7FD"/>
<path d="M216.615 28.7361H207.618C203.811 28.7361 200.697 25.631 200.697 21.8353V9.51786C200.697 5.72222 203.811 2.61707 207.618 2.61707H216.619C220.423 2.61707 223.536 5.72024 223.536 9.51389V9.9623H219.399V9.51786C219.399 7.99405 218.147 6.72421 216.619 6.72421H207.618C206.088 6.72421 204.834 7.97222 204.834 9.5V21.8353C204.834 23.371 206.096 24.629 207.636 24.629H216.617C218.151 24.629 219.397 23.3889 219.397 21.8571V17.7302H212.115V13.623H221.85C222.779 13.623 223.534 14.375 223.534 15.3016V21.8353C223.534 25.631 220.419 28.7361 216.613 28.7361H216.615Z" fill="#F0F7FD"/>
<path d="M243.079 28.7361H236.162C232.339 28.7361 229.241 25.6468 229.241 21.8353V9.51786C229.241 5.72222 232.355 2.61707 236.162 2.61707H243.079C246.886 2.61707 250 5.72222 250 9.51786V21.8353C250 25.631 246.886 28.7361 243.079 28.7361ZM243.079 24.629C244.621 24.629 245.883 23.371 245.883 21.8333V9.51786C245.883 7.98215 244.621 6.72421 243.081 6.72421H236.162C234.62 6.72421 233.358 7.98214 233.358 9.51984V21.8353C233.358 23.379 234.612 24.629 236.16 24.629H243.079Z" fill="#F0F7FD"/>
<path d="M82.8935 39.8849V43.3174H89.9778V52.9008H88.0873V51.7698H82.8935V58.4166H80.9434V51.7698H75.7695V52.9008H73.879V43.3174H80.9434V39.8849H82.8935ZM80.9434 49.9246V45.1627H75.7695V49.9246H80.9434ZM88.0873 49.9246V45.1627H82.8935V49.9246H88.0873Z" fill="#F0F7FD"/>
<path d="M98.1147 46.1548V44.4286H99.0101L98.0749 43.2579C98.9902 42.4444 99.8061 41.2936 100.483 39.7857L102.174 40.1428C102.035 40.5397 101.876 40.8968 101.716 41.254H107.169V42.9206H104.323C104.284 43.4563 104.244 43.9524 104.164 44.4286H107.726V46.1548H103.766C103.726 46.254 103.706 46.3532 103.687 46.4325C105.159 47.1865 106.393 47.9405 107.428 48.6944L106.254 49.8849H113.855V58.3175H111.945V57.5436H102.552V58.3175H100.662V50.1627C100.144 50.4802 99.6071 50.7976 99.0101 51.0754L97.7366 49.5476C99.8061 48.6349 101.139 47.5436 101.776 46.2341L101.816 46.1548H98.1147ZM99.4678 44.4286H102.333C102.413 43.9325 102.473 43.4365 102.512 42.9206H100.781C100.363 43.5159 99.9255 44.0119 99.4678 44.4286ZM105.917 49.8849C105.161 49.2103 104.226 48.5159 103.072 47.8016C102.594 48.5555 101.917 49.25 101.062 49.8849H105.917ZM111.947 52.9405V51.5516H102.554V52.9405H111.947ZM111.947 55.877V54.5674H102.554V55.877H111.947ZM115.31 41.2738V48.7738H108.345V41.2738H115.31ZM113.459 42.9405H110.196V47.127H113.459V42.9405Z" fill="#F0F7FD"/>
<path d="M139.03 56.1151H141.1V57.8016H123.029V56.1151H125.098V51.5516H139.028V56.1151H139.03ZM127.745 41.1944V39.9841H129.655V41.1944H134.471V39.9841H136.382V41.1944H140.779V42.9603H136.382V44.2302H134.471V42.9603H129.655V44.2103H127.745V42.9603H123.347V41.1944H127.745ZM126.193 45.381V50.3214H124.322V45.381H126.193ZM129.1 56.1151V53.2579H126.911V56.1151H129.1ZM129.976 44.7659V50.9564H128.125V44.7659H129.976ZM131.966 49.9246L130.553 48.6151C131.926 47.4643 132.921 46.0754 133.538 44.4683L135.349 44.9246C135.229 45.2421 135.09 45.5595 134.971 45.877H140.264V47.623H134.035C133.438 48.5357 132.742 49.3095 131.966 49.9246ZM133.16 56.1151V53.2579H130.891V56.1151H133.16ZM139.07 49.8452L137.896 51.1746C136.881 50.381 135.787 49.6865 134.632 49.1111L135.806 48C137 48.5159 138.075 49.131 139.07 49.8452ZM137.219 56.1151V53.2579H134.971V56.1151H137.219Z" fill="#F0F7FD"/>
<path d="M157.756 57.9028C156.462 57.8829 155.407 57.7639 154.592 57.5655C153.796 57.3274 153.079 56.8512 152.482 56.1766C152.204 55.8393 151.965 55.6806 151.726 55.6806C151.308 55.6806 150.592 56.5734 149.577 58.3591L148.184 57.0694C149.179 55.4623 150.074 54.4504 150.87 54.0536V48.4385H148.204V46.6925H152.641V54.1925C152.741 54.2718 152.84 54.371 152.94 54.4901C153.417 55.0258 153.895 55.4226 154.373 55.6806C154.97 55.9583 155.865 56.1369 157.039 56.1766C158.173 56.1964 159.527 56.2163 161.079 56.2163C162.034 56.2163 163.029 56.1964 164.024 56.1766C165.019 56.1567 165.775 56.1171 166.312 56.0774L165.855 57.9425H161.338C160.243 57.9425 159.049 57.9226 157.756 57.9028ZM153.278 43.2976L151.945 44.6071C151.149 43.6151 150.035 42.5437 148.582 41.3929L149.875 40.1627C151.229 41.2143 152.363 42.2659 153.278 43.2976ZM160.502 40.004C161.576 41.7103 163.467 43.1984 166.133 44.5079L165.138 46.0159C164.462 45.6984 163.865 45.3611 163.327 45.0238V46.2143H160.76V47.9603H165.397V49.6468H160.76V53.3968C160.76 54.627 160.163 55.2619 158.969 55.2619H157.238L156.82 53.496C157.338 53.5754 157.855 53.6151 158.333 53.6151C158.731 53.6151 158.95 53.377 158.95 52.9405V49.6468H154.293V47.9603H158.95V46.2143H156.164V45.1825C155.606 45.5397 155.049 45.8571 154.452 46.1548L153.457 44.6667C155.845 43.4762 157.696 41.9087 158.989 40.004H160.502ZM157.298 50.9365C156.661 52.3651 155.925 53.6151 155.069 54.6667L153.656 53.6746C154.492 52.7024 155.208 51.5516 155.825 50.2222L157.298 50.9365ZM162.651 44.5675C161.437 43.6944 160.462 42.7421 159.746 41.7103C158.95 42.8214 158.034 43.7738 157.019 44.5675H162.651ZM165.656 53.7341L164.183 54.7659C163.606 53.6151 162.81 52.3254 161.815 50.9365L163.228 50.0635C164.283 51.4524 165.099 52.6825 165.656 53.7341Z" fill="#F0F7FD"/>
</g>
<defs>
<clipPath id="clip0_1_20">
<rect width="250" height="60" fill="white"/>
</clipPath>
</defs>
</svg>
