<svg fill="#ffffff" viewBox="0 0 1239 1024" xmlns="http://www.w3.org/2000/svg"><path d="M918.098459 485.483789c-48.235789-9.431579-24.791579-35.570526-24.791579-35.570526s47.157895-78.309053-9.377684-135.275789c-70.063158-70.494316-240.208842 9.000421-240.208842 9.000421-64.997053 20.318316-47.804632-9.269895-38.588632-59.607579 0-59.284211-20.156632-159.690105-193.320421-100.405895-173.002105 59.607579-321.536 268.503579-321.536 268.503579C-13.040909 570.906947 0.594459 678.211368 0.594459 678.211368c25.815579 236.813474 275.671579 301.810526 470.069895 317.170527 204.476632 16.168421 480.471579-70.979368 564.11621-249.96379 83.698526-179.307789-68.338526-250.233263-116.736-259.934316z m-432.23579 443.176422c-203.021474 9.539368-367.130947-92.968421-367.130947-229.429895 0-136.515368 164.109474-246.029474 367.077053-255.461053 203.183158-9.431579 367.562105 74.859789 367.562105 211.159579 0 136.353684-164.378947 264.461474-367.562105 273.731369z m-40.474947-394.940632c-204.261053 24.037053-180.655158 216.656842-180.655158 216.656842s-2.048 60.954947 54.757053 92.052211c119.484632 65.104842 242.526316 25.653895 304.666947-55.134316 62.194526-80.842105 25.653895-277.504-178.768842-253.574737z m-51.523368 270.282105c-38.157474 4.527158-68.877474-17.623579-68.877474-49.744842 0-31.959579 27.270737-65.428211 65.482105-69.470316 43.762526-4.203789 72.218947 21.234526 72.218948 53.35579 0 31.959579-30.881684 61.493895-68.823579 65.859368z m120.346947-103.208421c-12.934737 9.701053-28.833684 8.353684-35.624421-3.341474-7.168-11.317895-4.473263-29.534316 8.623158-39.127578 15.090526-11.317895 30.827789-8.084211 37.672421 3.287578 6.844632 11.641263 1.940211 29.103158-10.671158 39.181474z m503.322947-298.684631a33.306947 33.306947 0 0 0 33.199158-31.797895c24.953263-225.818947-183.673263-187.014737-183.673263-187.014737-18.539789 0-33.414737 15.090526-33.414737 33.953684 0 18.539789 14.874947 33.630316 33.414737 33.630316 149.827368-33.306947 116.789895 117.598316 116.789895 117.598316 0 18.647579 15.090526 33.630316 33.68421 33.630316zM993.173827 8.030316c-72.111158-16.976842-146.324211-2.371368-167.073684 1.616842-1.616842 0.215579-3.125895 1.724632-4.581052 1.994105-0.754526 0.161684-1.239579 0.916211-1.239579 0.916211a49.259789 49.259789 0 0 0 13.20421 96.525473s26.246737-3.557053 44.085895-10.563368c17.677474-7.114105 167.073684-5.335579 241.286737 120.185263 40.474947 91.621053 17.785263 152.845474 14.982737 162.762105 0 0-9.701053 23.713684-9.701053 47.21179 0 27.001263 21.773474 44.032 48.559158 44.032 22.420211 0 41.283368-3.125895 46.780631-41.283369h0.269474C1299.457617 164.001684 1122.251722 38.373053 993.173827 8.084211z"></path></svg>