<svg xmlns="http://www.w3.org/2000/svg" viewBox="0 0 226.04 54.46"><defs><style>.cls-1{fill:#82308e;}</style></defs><title>logo_color_1</title><g id="图层_2" data-name="图层 2"><g id="图层_1-2" data-name="图层 1"><path class="cls-1" d="M54.6,1.83a28.74,28.74,0,0,1,9.29,4c5.3,3.42,10.41,9.64,8.28,18.85C70.7,31,64.62,36.12,56.06,38.85,51,40.48,43.34,40.46,34.81,40.46c-4.18,0-7.87-.1-11.48-.1-6.64,0-11,2-14,4.91L0,54.46H36.57c13.63,0,21.09-.88,28.05-4C76,45.28,80.85,36.93,81.42,28.15c.79-12.18-9-25-26.82-26.32"/><path class="cls-1" d="M37.36.36,18,0l4.52,4.22A19.38,19.38,0,0,0,35.23,9.46c6.1.1,12.43.28,13.82.35a50,50,0,0,1,9.44,1.38c4.55,1.21,8.57,3.12,10.78,6-.61-3.75-4.53-10.79-14.89-14.58A34.52,34.52,0,0,0,49.6,1.38C48.49,1.15,45.36.8,42.83.62S37.36.36,37.36.36"/><path class="cls-1" d="M34.81,38.62h1.64a9.14,9.14,0,0,0,2.22-.35A4.44,4.44,0,0,0,41.55,36s2.11-4.25,4.22-8.53c2-4,3.93-8.08,4.31-8.79a10.63,10.63,0,0,1,9.47-5.53,22.43,22.43,0,0,0-7-1.75,33.59,33.59,0,0,0-8.94.17,13.22,13.22,0,0,0-5.25,2,9.89,9.89,0,0,0-2.43,2.52,25.64,25.64,0,0,0-1.62,2.69c-3.37,6.82-8,16.22-9.74,19.76,3.27,0,6.53.1,10.29.1"/><polygon class="cls-1" points="94.44 43.34 97.11 43.34 97.11 51.47 98.93 51.47 98.93 43.34 101.64 43.34 101.64 41.69 94.44 41.69 94.44 43.34"/><path class="cls-1" d="M108.62,45.67l-1-.22c-.9-.2-1.44-.32-1.68-.72a.87.87,0,0,1-.12-.45.9.9,0,0,1,.11-.44c.4-.76,1.64-.75,1.73-.75a2.85,2.85,0,0,1,2.54,1.46l1.51-1.13a4.65,4.65,0,0,0-4-2,3.82,3.82,0,0,0-3.49,1.61,2.9,2.9,0,0,0-.38,1.44,2.46,2.46,0,0,0,1.4,2.27,5.86,5.86,0,0,0,1.49.46l1.16.26c.48.11,1.37.24,1.7.68a1,1,0,0,1,.18.58c0,.92-1,1.18-1.16,1.22a3.85,3.85,0,0,1-3.76-1.4l-1.53,1.07a3.3,3.3,0,0,0,.47.64,5.17,5.17,0,0,0,3.81,1.45,5,5,0,0,0,3.2-1,2.6,2.6,0,0,0,1-2.15,2.22,2.22,0,0,0-.56-1.64,4.58,4.58,0,0,0-2.61-1.25"/><rect class="cls-1" x="114.5" y="41.69" width="1.8" height="9.78"/><polygon class="cls-1" points="125.67 48.59 121.33 41.69 119.68 41.69 119.68 51.47 121.47 51.47 121.36 44.62 125.64 51.47 127.24 51.47 127.24 41.69 125.44 41.69 125.67 48.59"/><path class="cls-1" d="M134.83,41.44a4.57,4.57,0,0,0-4.41,3.26,5.92,5.92,0,0,0-.29,1.9,5.29,5.29,0,0,0,1.3,3.61,4.12,4.12,0,0,0,3.36,1.51,5,5,0,0,0,1.7-.27,4.34,4.34,0,0,0,1.66-1.13,5.52,5.52,0,0,0,1.36-3.74A5.26,5.26,0,0,0,138.29,43a4.55,4.55,0,0,0-3.46-1.55M136,49.78a2.57,2.57,0,0,1-1.12.24,2.62,2.62,0,0,1-1.44-.42A3.69,3.69,0,0,1,132,46.53a3.29,3.29,0,0,1,1.56-3.12,2.7,2.7,0,0,1,1.24-.29,2.55,2.55,0,0,1,2.27,1.29,4.29,4.29,0,0,1,.59,2.37,3.11,3.11,0,0,1-1.71,3"/><path class="cls-1" d="M152.26,41.8a8.29,8.29,0,0,0-1.41-.11h-3.51v9.78h3.12a7.5,7.5,0,0,0,2.4-.26c2-.65,2.77-2.6,2.77-4.54a5.52,5.52,0,0,0-1-3.4,4,4,0,0,0-2.35-1.47M153.1,49a2.23,2.23,0,0,1-1.44.76,13.7,13.7,0,0,1-2,.09h-.48V43.34h1a5.54,5.54,0,0,1,1.58.11,2.63,2.63,0,0,1,1,.53,3.36,3.36,0,0,1,.94,2.67A4.2,4.2,0,0,1,153.1,49"/><polygon class="cls-1" points="161.04 45.74 158.93 41.69 156.85 41.69 160.12 47.61 160.12 51.47 161.93 51.47 161.93 47.61 165.23 41.69 163.18 41.69 161.04 45.74"/><polygon class="cls-1" points="173.6 48.59 169.26 41.69 167.62 41.69 167.62 51.47 169.4 51.47 169.29 44.62 173.57 51.47 175.18 51.47 175.18 41.69 173.38 41.69 173.6 48.59"/><path class="cls-1" d="M180.79,41.69l-3.31,9.78h2l.57-1.91h3.67l.57,1.91h2l-3.34-9.78ZM180.5,48l1.36-4.5L183.2,48Z"/><polygon class="cls-1" points="186.89 43.34 189.55 43.34 189.55 51.47 191.38 51.47 191.38 43.34 194.08 43.34 194.08 41.69 186.89 41.69 186.89 43.34"/><path class="cls-1" d="M203.66,45.89a3.62,3.62,0,0,0,.18-1.09,3,3,0,0,0-3.23-3.11h-4v9.78h1.81V47.84h1.65L202,51.47h2.1l-2.18-4a2.69,2.69,0,0,0,1.75-1.59m-2.42.19a5,5,0,0,1-2.17.24h-.65v-3h1.48a2.57,2.57,0,0,1,1.47.29,1.52,1.52,0,0,1-.13,2.52"/><path class="cls-1" d="M210.91,41.44a4.57,4.57,0,0,0-4.41,3.26,5.92,5.92,0,0,0-.29,1.9,5.29,5.29,0,0,0,1.3,3.61,4.11,4.11,0,0,0,3.35,1.51,5,5,0,0,0,1.71-.27,4.34,4.34,0,0,0,1.66-1.13,5.52,5.52,0,0,0,1.36-3.74A5.26,5.26,0,0,0,214.37,43a4.55,4.55,0,0,0-3.46-1.55M212,49.78a2.57,2.57,0,0,1-1.12.24,2.62,2.62,0,0,1-1.44-.42,3.69,3.69,0,0,1-1.39-3.07,3.29,3.29,0,0,1,1.56-3.12,2.7,2.7,0,0,1,1.24-.29,2.55,2.55,0,0,1,2.27,1.29,4.29,4.29,0,0,1,.59,2.37,3.12,3.12,0,0,1-1.71,3"/><polygon class="cls-1" points="224.46 48.59 220.12 41.69 218.47 41.69 218.47 51.47 220.26 51.47 220.15 44.62 224.43 51.47 226.04 51.47 226.04 41.69 224.24 41.69 224.46 48.59"/><polygon class="cls-1" points="114.76 19.94 122.5 19.94 122.5 17.28 114.76 17.28 114.76 16.28 122.5 16.28 122.5 13.62 114.76 13.62 114.76 12.62 122.5 12.62 122.5 9.96 114.76 9.96 114.76 8.89 111.29 8.89 111.29 9.96 103.55 9.96 103.55 12.62 111.29 12.62 111.29 13.62 103.55 13.62 103.55 16.28 111.29 16.28 111.29 17.28 103.55 17.28 103.55 19.94 111.29 19.94 114.76 19.94"/><path class="cls-1" d="M122.22,35.59v-12A2.59,2.59,0,0,0,119.63,21H106.42a2.59,2.59,0,0,0-2.59,2.58v12h3.57V32.82h10.28v-3H107.4V28.44h10.28v-3H107.4V24h11.27V35.59Z"/><path class="cls-1" d="M142.64,16.55H133a2.31,2.31,0,0,0-2.32,2.31V35.59h3.47l0-4.8h7.32v4.8H145V18.86a2.31,2.31,0,0,0-2.31-2.31m-8.53,5.32,0-2.32,7.39-.09v2.41Zm0,5.81,0-2.69h7.36v2.69Z"/><path class="cls-1" d="M141.53,11.88l-7.1.13L135,8.89h-3.47l-1,6.46H142.8a2.2,2.2,0,0,0,2.2-2.2V10.09h-3.47Z"/><path class="cls-1" d="M150.12,20.89h8.47V17.43h-8.47a.3.3,0,0,1-.3-.3V15.2L158.59,13V9.52l-8.77,2.18V8.89h-3.46v8.24a3.76,3.76,0,0,0,3.76,3.76"/><path class="cls-1" d="M150.12,35.64h8.47V32.18h-8.47a.31.31,0,0,1-.3-.3V29.53l8.83-2.2v-3.5L149.82,26V21.51h-3.46V31.88a3.77,3.77,0,0,0,3.76,3.76"/><path class="cls-1" d="M180.46,13.85h-6.15a2,2,0,0,0-2,2v6.53H193V15.86a2,2,0,0,0-2-2h-7V13H193V10h-9.08V8.89h-3.47V10h-8.19v3h8.19Zm3.35,5.72h-2.39v-3h2.39Zm-5.73,0h-2.31v-3h2.31Zm11.44,0h-2.38v-3h2.38Z"/><polygon class="cls-1" points="171.03 35.09 171.03 16.53 171.03 15.86 171.03 13.39 164.25 14.96 164.25 18.1 167.56 17.33 167.56 35.09 171.03 35.09"/><polygon class="cls-1" points="175.76 26.11 180.5 26.11 181.11 31.01 184.59 31.01 183.98 26.11 193.01 26.11 193.01 23.28 172.45 23.28 172.45 26.11 172.47 26.11 171.66 35.03 174.94 35.03 175.76 26.11"/><path class="cls-1" d="M188.77,33.17v-6h-3.26v4.7h-5.93v-4.7h-3.23v6a2.14,2.14,0,0,0,2.14,2.14h8.13a2.15,2.15,0,0,0,2.15-2.14"/><polygon class="cls-1" points="189.34 27.16 190.32 35.16 193.81 35.16 192.82 27.16 189.34 27.16"/><path class="cls-1" d="M215.26,33.27v-4.2h-3.47v2.47a.43.43,0,0,1-.43.43h-5.67a.74.74,0,0,1-.74-.74V20.05h5.6v3.83a.44.44,0,0,1-.44.44H207.3l-.49,3.46h3.3a3.91,3.91,0,0,0,3.91-3.9V19.61l.78,1.6h2v8.86h3.46V9.49h-3.46v7.7l-3.89-7.94h-7.7A3,3,0,0,0,202.46,11l-4.27,10.12h3.3V31.23a4.2,4.2,0,0,0,4.2,4.21h7.4a2.17,2.17,0,0,0,2.17-2.17M205.38,13a.49.49,0,0,1,.46-.31h4.81l1.89,3.87h-8.65Z"/><path class="cls-1" d="M222.57,9.49V31.57a.4.4,0,0,1-.4.4h-5.78v3.47h5.78A3.88,3.88,0,0,0,226,31.57V9.49Z"/><polygon class="cls-1" points="171.03 8.99 164.25 10.56 164.25 13.7 171.03 12.13 171.03 8.99"/><path class="cls-1" d="M99.87,16.14l-5.42-2.4v3.54l3.93,1.88a1.12,1.12,0,0,1,.51,1.17L95.45,35.64h3.66l.1-.38c0-.13,2.4-11.29,3-13.42,1.07-3.91-1.71-5.37-2.32-5.7"/><polygon class="cls-1" points="94.44 11.62 102.65 15.53 102.65 11.99 94.44 8.08 94.44 11.62"/></g></g></svg>