<?xml version="1.0" encoding="UTF-8" standalone="no"?>
<!DOCTYPE svg PUBLIC "-//W3C//DTD SVG 1.0//EN" "http://www.w3.org/TR/2001/REC-SVG-20010904/DTD/svg10.dtd">
<!-- Created with Inkscape (http://www.inkscape.org/) -->
<svg
   xmlns:svg="http://www.w3.org/2000/svg"
   xmlns="http://www.w3.org/2000/svg"
   version="1.0"
   width="400"
   height="105"
   id="svg2864">
  <defs
     id="defs2866">
    <clipPath
       id="clipPath2800">
      <path
         d="M 0,0 L 1,0 L 1,1 L 0,1 L 0,0 z"
         id="path2802" />
    </clipPath>
    <clipPath
       id="clipPath2792">
      <path
         d="M -2.27444,-0.57367 L 1.14986,-0.57367 L 1.14986,18.3202 L -2.27444,18.3202 L -2.27444,-0.57367 z"
         id="path2794" />
    </clipPath>
    <clipPath
       id="clipPath2782">
      <path
         d="M 0,0 L 595.276,0 L 595.276,841.89 L 0,841.89 L 0,0 z"
         id="path2784" />
    </clipPath>
    <clipPath
       id="clipPath2774">
      <path
         d="M 371.29,16.358 L 573.304,16.358 L 573.304,76.535 L 371.29,76.535 L 371.29,16.358 z"
         id="path2776" />
    </clipPath>
  </defs>
  <g
     transform="translate(-143.02892,-405.5235)"
     id="layer1">
    <g
       transform="matrix(1.7947881,0,0,1.7947881,-108.58367,-399.24126)"
       id="g3271">
      <path
         d="M 205.30662,494.32291 C 205.04586,493.02513 203.91591,492.6798 202.76423,492.6798 C 200.09146,492.6798 199.13534,495.01357 199.1788,497.04656 C 199.30918,499.83148 200.15665,501.35205 203.26401,501.41332 C 204.00283,501.41332 204.74164,501.29078 205.437,501.06242 L 205.437,497.99344 L 202.95979,497.99344 L 202.95979,496.70123 L 206.93635,496.70123 L 206.93635,502.07613 C 205.69775,502.44931 204.43742,502.70553 203.19882,502.70553 C 201.67773,502.70553 200.4174,502.51058 199.22226,501.45788 C 198.02712,500.40518 197.61426,498.57827 197.61426,497.04656 C 197.61426,495.91588 197.98366,494.68495 198.54864,493.70465 C 199.48302,492.05041 201.09103,491.3876 202.93807,491.3876 C 204.76337,491.3876 206.80598,492.22864 206.8929,494.32291"
         id="path2804"
         style="fill:#231f20;fill-opacity:1;fill-rule:nonzero;stroke:none" />
      <path
         d="M 214.43315,497.97673 C 214.47661,496.71237 213.8899,495.73765 212.49919,495.73765 C 211.32578,495.73765 210.6087,496.74579 210.6087,497.97673 L 214.43315,497.97673 z M 210.6087,498.97373 C 210.50005,500.29935 211.04329,501.66953 212.49919,501.66953 C 213.62914,501.66953 214.17239,501.22952 214.34623,500.13226 L 215.84559,500.13226 C 215.62829,501.84777 214.30277,502.70553 212.49919,502.70553 C 210.06545,502.70553 209.10934,500.99001 209.10934,498.76207 C 209.10934,496.55084 210.21756,494.69609 212.60784,494.69609 C 214.86774,494.74064 215.93251,496.1721 215.93251,498.26636 L 215.93251,498.97373"
         id="path2806"
         style="fill:#231f20;fill-opacity:1;fill-rule:nonzero;stroke:none" />
      <path
         d="M 219.51793,496.03842 L 219.53966,496.03842 C 220.01772,495.08597 221.08248,494.69609 221.82129,494.69609 C 222.36454,494.69609 224.68963,494.82976 224.68963,497.25822 L 224.68963,502.47716 L 223.25546,502.47716 L 223.25546,497.72608 C 223.25546,496.47287 222.73394,495.79335 221.51707,495.79335 C 221.51707,495.79335 220.7348,495.74879 220.14809,496.3559 C 219.9308,496.56198 219.53966,496.89618 219.53966,498.37218 L 219.53966,502.47716 L 218.10549,502.47716 L 218.10549,494.92445 L 219.51793,494.92445"
         id="path2808"
         style="fill:#231f20;fill-opacity:1;fill-rule:nonzero;stroke:none" />
      <path
         d="M 230.33939,498.80663 C 229.47019,498.85119 228.29678,499.16867 228.29678,500.26593 C 228.29678,501.20167 228.94868,501.66953 229.79614,501.66953 C 231.46934,501.66953 231.79529,500.20466 231.77356,498.80663 L 230.33939,498.80663 z M 231.77356,497.8152 C 231.77356,496.50072 231.68664,495.73765 230.16555,495.73765 C 229.44846,495.73765 228.77484,496.15539 228.75311,496.94073 L 227.25375,496.94073 C 227.31894,495.28649 228.62273,494.69609 230.10036,494.69609 C 231.66491,494.69609 233.186,495.16395 233.186,497.26936 L 233.186,500.88419 C 233.186,501.21838 233.20773,501.84777 233.25118,502.47716 L 232.29507,502.47716 C 232.16469,502.47716 231.90394,502.55514 231.88221,502.37691 C 231.86048,502.026 231.81702,501.69738 231.81702,501.35205 L 231.77356,501.35205 C 231.31723,502.29893 230.46977,502.70553 229.42673,502.70553 C 228.12294,502.70553 226.79742,502.026 226.79742,500.55557 C 226.79742,498.43345 228.68792,497.8152 230.46977,497.8152"
         id="path2810"
         style="fill:#231f20;fill-opacity:1;fill-rule:nonzero;stroke:none" />
      <path
         d="M 240.8349,494.92445 L 242.26907,494.92445 L 242.26907,502.47716 L 240.87836,502.47716 L 240.87836,501.36319 L 240.8349,501.36319 C 240.26992,502.31564 239.31381,502.70553 238.24905,502.70553 C 236.66277,502.70553 235.77185,501.50244 235.77185,499.98187 L 235.77185,494.92445 L 237.20601,494.92445 L 237.20601,499.39147 C 237.20601,500.70595 237.51023,501.66953 238.87921,501.66953 C 239.46592,501.66953 240.24819,501.36319 240.55241,500.58341 C 240.8349,499.87604 240.8349,498.98487 240.8349,498.80663"
         id="path2812"
         style="fill:#231f20;fill-opacity:1;fill-rule:nonzero;stroke:none" />
      <path
         d="M 244.87665,502.47716 L 246.61503,502.47716 L 246.61503,500.67253 L 244.87665,500.67253 L 244.87665,502.47716 z"
         id="path2814"
         style="fill:#231f20;fill-opacity:1;fill-rule:nonzero;stroke:none" />
      <path
         d="M 254.8941,496.27792 L 257.3713,496.27792 C 259.0445,496.19994 259.41391,495.44801 259.41391,494.59026 C 259.41391,493.7325 259.0445,492.98057 257.3713,492.90259 L 254.8941,492.90259 L 254.8941,496.27792 z M 254.91583,497.57013 L 254.91583,502.47716 L 253.41647,502.47716 L 253.41647,491.61039 L 257.30611,491.61039 C 259.10969,491.61039 261.00018,492.18408 261.00018,494.33405 C 261.00018,495.64296 260.21791,496.65667 258.95758,496.95744 L 258.95758,496.98529 C 260.26137,497.30277 260.43521,497.99344 260.60905,499.21323 C 260.78289,500.29935 260.89154,501.45788 261.28267,502.47716 L 259.67466,502.47716 C 259.54429,501.83106 259.34872,501.12369 259.28353,500.47759 C 259.15315,499.49729 259.15315,498.61169 258.67509,498.07141 C 258.21877,497.57013 257.63206,497.62026 257.02362,497.57013"
         id="path2816"
         style="fill:#231f20;fill-opacity:1;fill-rule:nonzero;stroke:none" />
      <path
         d="M 263.58603,502.47716 L 263.58603,494.92445 L 265.0202,494.92445 L 265.0202,502.47716 L 263.58603,502.47716 z M 263.45566,491.61039 L 265.15058,491.61039 L 265.15058,493.15881 L 263.45566,493.15881"
         id="path2818"
         style="fill:#231f20;fill-opacity:1;fill-rule:nonzero;stroke:none" />
      <path
         d="M 271.97375,497.34733 C 271.90856,496.40046 271.45223,495.73765 270.43093,495.73765 C 269.06195,495.73765 268.51871,496.92402 268.51871,498.70081 C 268.51871,500.47759 269.06195,501.66953 270.43093,501.66953 C 271.36532,501.66953 271.95202,501.05128 272.03894,499.96516 L 273.47311,499.96516 C 273.34273,501.66953 272.0824,502.70553 270.4092,502.70553 C 267.97546,502.70553 267.01935,500.99001 267.01935,498.76207 C 267.01935,496.55084 268.12757,494.69609 270.51785,494.69609 C 272.12586,494.69609 273.321,495.70423 273.40792,497.34733"
         id="path2820"
         style="fill:#231f20;fill-opacity:1;fill-rule:nonzero;stroke:none" />
      <path
         d="M 275.36361,502.47716 L 275.36361,491.61039 L 276.79777,491.61039 L 276.79777,495.93259 L 276.8195,495.93259 C 277.36275,495.08597 278.16675,494.69609 279.27498,494.69609 C 281.25239,494.69609 281.86083,496.005 281.86083,497.36404 L 281.86083,502.47716 L 280.42666,502.47716 L 280.42666,498.01014 C 280.42666,496.68452 280.07898,495.82676 278.75346,495.79335 C 278.16675,495.78221 277.29756,496.21665 277.0368,496.85162 C 276.71085,497.6314 276.79777,498.17724 276.79777,498.59498 L 276.79777,502.47716"
         id="path2822"
         style="fill:#231f20;fill-opacity:1;fill-rule:nonzero;stroke:none" />
      <path
         d="M 284.6857,494.92445 L 284.6857,493.31476 L 286.11987,492.85804 L 286.11987,494.92445 L 287.85826,494.87989 L 287.85826,495.9493 L 286.11987,495.93259 L 286.11987,500.80621 C 286.11987,501.35205 286.53274,501.60827 287.03253,501.60827 C 287.27155,501.60827 287.57577,501.57485 287.79307,501.51915 L 287.79307,502.61641 C 287.46712,502.63312 287.14118,502.70553 286.81523,502.70553 C 286.46755,502.70553 286.20679,502.68882 285.85912,502.63312 C 285.62009,502.58856 285.25068,502.46602 285.01165,502.13183 C 284.75089,501.76979 284.6857,501.74194 284.6857,500.7338 L 284.6857,495.93259 L 283.38191,495.9493 L 283.38191,494.87989"
         id="path2824"
         style="fill:#231f20;fill-opacity:1;fill-rule:nonzero;stroke:none" />
      <path
         d="M 289.68357,502.47716 L 289.68357,494.92445 L 291.11774,494.92445 L 291.11774,502.47716 L 289.68357,502.47716 z M 289.55319,491.61039 L 291.24811,491.61039 L 291.24811,493.15881 L 289.55319,493.15881"
         id="path2826"
         style="fill:#231f20;fill-opacity:1;fill-rule:nonzero;stroke:none" />
      <path
         d="M 296.94133,501.30749 C 298.48415,501.30749 299.04913,499.98187 299.04913,498.52257 C 299.04913,497.06327 298.48415,495.73765 296.94133,495.73765 C 295.26813,495.73765 294.81181,497.33062 294.81181,498.52257 C 294.81181,499.70895 295.26813,501.30749 296.94133,501.30749 z M 299.09258,494.92445 L 300.57021,494.92445 C 300.52675,495.37561 300.48329,495.82676 300.48329,496.27792 L 300.48329,501.59156 C 300.48329,504.35977 299.28815,505.49045 296.50673,505.49045 C 294.877,505.49045 293.72532,504.79979 293.70359,503.05086 L 295.22467,503.05086 C 295.26813,504.059 295.96349,504.45446 296.98479,504.45446 C 299.00567,504.45446 299.00567,502.76679 299.04913,501.06242 L 299.00567,501.06242 C 298.54934,501.97031 297.46285,502.34349 296.52846,502.34349 C 294.2251,502.34349 293.31245,500.71709 293.31245,498.59498 C 293.31245,496.4116 294.52932,494.69609 296.81095,494.69609 C 297.54977,494.69609 298.35377,494.99686 298.83183,495.68752 C 298.85356,495.72094 299.04913,496.15539 299.04913,496.04956"
         id="path2828"
         style="fill:#231f20;fill-opacity:1;fill-rule:nonzero;stroke:none" />
      <path
         d="M 303.00396,502.47716 L 304.74234,502.47716 L 304.74234,500.67253 L 303.00396,500.67253 L 303.00396,502.47716 z"
         id="path2830"
         style="fill:#231f20;fill-opacity:1;fill-rule:nonzero;stroke:none" />
      <path
         d="M 196.85371,464.67461 L 209.86988,464.67461 L 209.86988,467.34256 L 205.08932,467.34256 L 205.08932,480.73248 L 201.63427,480.73248 L 201.63427,467.34256 L 196.85371,467.34256"
         id="path2832"
         style="fill:#231f20;fill-opacity:1;fill-rule:nonzero;stroke:none" />
      <path
         d="M 220.14809,462.42996 L 220.14809,459.77871 L 222.408,459.77871 L 222.408,462.42996 L 220.14809,462.42996 z M 216.32364,462.42996 L 216.32364,459.77871 L 218.58355,459.77871 L 218.58355,462.42996 L 216.32364,462.42996 z M 226.31937,464.67461 L 226.31937,474.72818 C 226.31937,479.00026 223.25546,481.06667 219.36582,481.06667 C 215.47618,481.06667 212.39054,479.00026 212.39054,474.72818 L 212.39054,464.67461 L 215.84559,464.67461 L 215.84559,473.39142 C 215.84559,476.1095 215.97597,478.57695 219.36582,478.57695 C 222.73394,478.57695 222.88605,476.1095 222.88605,473.39142 L 222.88605,464.67461"
         id="path2834"
         style="fill:#231f20;fill-opacity:1;fill-rule:nonzero;stroke:none" />
      <path
         d="M 228.84003,464.67461 L 232.59929,464.67461 L 236.77142,477.3293 L 236.81488,477.3293 L 241.00874,464.67461 L 244.42032,464.67461 L 238.5098,480.73248 L 234.75054,480.73248"
         id="path2836"
         style="fill:#231f20;fill-opacity:1;fill-rule:nonzero;stroke:none" />
      <path
         d="M 249.5051,471.57008 L 253.17744,471.57008 C 255.65464,471.45868 256.19789,470.34471 256.19789,469.08036 C 256.19789,467.81043 255.65464,466.69646 253.17744,466.58507 L 249.5051,466.58507 L 249.5051,471.57008 z M 249.54856,473.48054 L 249.54856,480.73248 L 247.33212,480.73248 L 247.33212,464.67461 L 253.06879,464.67461 C 255.76329,464.67461 258.54471,465.52122 258.54471,468.70161 C 258.54471,470.63434 257.3713,472.12706 255.52427,472.57265 L 255.52427,472.61721 C 257.45822,473.07951 257.71898,474.10436 257.95801,475.90899 C 258.19704,477.50754 258.3926,479.22305 258.95758,480.73248 L 256.58903,480.73248 C 256.37173,479.78003 256.11097,478.7329 256.00232,477.77489 C 255.82848,476.32673 255.82848,475.01781 255.08967,474.21576 C 254.43777,473.48054 253.54685,473.54737 252.65593,473.48054"
         id="path2838"
         style="fill:#231f20;fill-opacity:1;fill-rule:nonzero;stroke:none" />
      <path
         d="M 262.1736,480.73248 L 262.1736,464.67461 L 264.28139,464.67461 L 264.28139,471.05765 L 264.34658,471.05765 C 265.12885,469.81001 266.34572,469.23631 267.95373,469.23631 C 270.86553,469.23631 271.77818,471.16905 271.77818,473.16862 L 271.77818,480.73248 L 269.67039,480.73248 L 269.67039,474.12664 C 269.67039,472.17162 269.1706,470.9017 267.19319,470.85714 C 266.34572,470.83486 265.04193,471.48096 264.6508,472.4167 C 264.15101,473.56965 264.28139,474.37171 264.28139,474.99553 L 264.28139,480.73248"
         id="path2840"
         style="fill:#231f20;fill-opacity:1;fill-rule:nonzero;stroke:none" />
      <path
         d="M 282.46926,474.08208 C 282.51272,472.21618 281.66526,470.76802 279.62265,470.76802 C 277.86254,470.76802 276.8195,472.26074 276.8195,474.08208 L 282.46926,474.08208 z M 276.8195,475.55252 C 276.6674,477.50754 277.4714,479.52939 279.62265,479.52939 C 281.27412,479.52939 282.09985,478.88886 282.33888,477.26246 L 284.55533,477.26246 C 284.22938,479.79674 282.27369,481.06667 279.60092,481.06667 C 276.0155,481.06667 274.60306,478.53239 274.60306,475.24061 C 274.60306,471.97111 276.25453,469.23631 279.77476,469.23631 C 283.12116,469.30315 284.70743,471.41412 284.70743,474.50539 L 284.70743,475.55252"
         id="path2842"
         style="fill:#231f20;fill-opacity:1;fill-rule:nonzero;stroke:none" />
      <path
         d="M 287.42366,467.55422 L 289.94432,467.55422 L 289.94432,465.26501 L 287.42366,465.26501 L 287.42366,467.55422 z"
         id="path2844"
         style="fill:#231f20;fill-opacity:1;fill-rule:nonzero;stroke:none" />
      <path
         d="M 287.61923,480.73248 L 289.72703,480.73248 L 289.72703,469.56493 L 287.61923,469.56493 L 287.61923,480.73248 z"
         id="path2846"
         style="fill:#231f20;fill-opacity:1;fill-rule:nonzero;stroke:none" />
      <path
         d="M 295.48543,471.21361 L 295.52889,471.21361 C 296.24598,469.81001 297.81052,469.23631 298.91875,469.23631 C 299.70102,469.23631 303.15606,469.43126 303.15606,473.01267 L 303.15606,480.73248 L 301.02654,480.73248 L 301.02654,473.70333 C 301.02654,471.85971 300.24427,470.85714 298.48415,470.85714 C 298.48415,470.85714 297.31074,470.7903 296.41982,471.68148 C 296.1156,471.99339 295.52889,472.48353 295.52889,474.66134 L 295.52889,480.73248 L 293.4211,480.73248 L 293.4211,469.56493 L 295.48543,469.56493"
         id="path2848"
         style="fill:#231f20;fill-opacity:1;fill-rule:nonzero;stroke:none" />
      <path
         d="M 306.69803,480.73248 L 308.80582,480.73248 L 308.80582,464.67461 L 306.69803,464.67461 L 306.69803,480.73248 z"
         id="path2850"
         style="fill:#231f20;fill-opacity:1;fill-rule:nonzero;stroke:none" />
      <path
         d="M 316.93278,475.30745 C 315.65072,475.37428 313.93406,475.84215 313.93406,477.46298 C 313.93406,478.8443 314.89018,479.52939 316.12878,479.52939 C 318.62771,479.52939 319.08403,477.37386 319.04057,475.30745 L 316.93278,475.30745 z M 319.04057,473.83701 C 319.04057,471.90427 318.93192,470.76802 316.69375,470.76802 C 315.62899,470.76802 314.62942,471.39184 314.60769,472.55037 L 312.36951,472.55037 C 312.47816,470.09964 314.41212,469.23631 316.60683,469.23631 C 318.88846,469.23631 321.1701,469.9214 321.1701,473.03495 L 321.1701,478.37643 C 321.1701,478.86658 321.19183,479.79674 321.25702,480.73248 L 319.82285,480.73248 C 319.62728,480.73248 319.25787,480.84387 319.23614,480.57652 C 319.19268,480.0641 319.14922,479.57395 319.10576,479.06709 L 319.0623,479.06709 C 318.38868,480.46513 317.12835,481.06667 315.60726,481.06667 C 313.6733,481.06667 311.71762,480.0641 311.71762,477.88629 C 311.71762,474.75046 314.49904,473.83701 317.12835,473.83701"
         id="path2852"
         style="fill:#231f20;fill-opacity:1;fill-rule:nonzero;stroke:none" />
      <path
         d="M 326.62429,471.27488 L 326.66775,471.27488 C 327.38483,469.87128 328.94938,469.29758 330.0576,469.29758 C 330.83987,469.29758 334.29492,469.4981 334.29492,473.07394 L 334.29492,480.79375 L 332.16539,480.79375 L 332.16539,473.7646 C 332.16539,471.92098 331.40485,470.91841 329.623,470.91841 C 329.623,470.91841 328.44959,470.85157 327.55867,471.74274 C 327.25445,472.05466 326.66775,472.5448 326.66775,474.72261 L 326.66775,480.79375 L 324.55995,480.79375 L 324.55995,469.6262 L 326.62429,469.6262"
         id="path2854"
         style="fill:#231f20;fill-opacity:1;fill-rule:nonzero;stroke:none" />
      <path
         d="M 342.40015,479.6575 C 344.96427,479.6575 345.5727,477.27917 345.5727,475.19048 C 345.5727,473.16306 344.81216,470.76245 342.40015,470.76245 C 339.85776,470.76245 339.24932,473.09622 339.24932,475.19048 C 339.24932,477.27917 340.03159,479.6575 342.40015,479.6575 z M 345.52924,464.73588 L 347.65877,464.73588 L 347.65877,478.81645 C 347.65877,479.48483 347.72396,480.14764 347.76742,480.79375 L 345.61616,480.79375 L 345.52924,479.12836 L 345.52924,479.01696 L 345.48578,479.01696 C 344.74697,480.57095 343.26934,481.12794 341.6396,481.12794 C 338.33667,481.12794 337.01115,478.08123 337.01115,475.21276 C 337.01115,472.18833 338.55397,469.29758 342.03074,469.29758 C 343.44318,469.29758 344.85562,469.80444 345.48578,471.1412 L 345.52924,471.1412"
         id="path2856"
         style="fill:#231f20;fill-opacity:1;fill-rule:nonzero;stroke:none" />
      <path
         d="M 360.08823,467.19775 C 360.08823,469.53708 358.19774,471.43083 355.87264,471.43083 C 353.52582,471.43083 351.63533,469.53708 351.63533,467.19775 C 351.63533,464.86398 353.52582,462.97023 355.87264,462.97023 C 358.19774,462.97023 360.08823,464.86398 360.08823,467.19775 z"
         id="path2858"
         style="fill:none;stroke:#231f20;stroke-width:0.26357558;stroke-linecap:butt;stroke-linejoin:miter;stroke-miterlimit:4;stroke-dasharray:none;stroke-opacity:1" />
      <path
         d="M 354.98172,466.76887 L 356.11167,466.76887 C 356.85049,466.73545 357.02433,466.39569 357.02433,466.01137 C 357.02433,465.62705 356.85049,465.28729 356.11167,465.25387 L 354.98172,465.25387 L 354.98172,466.76887 z M 355.00345,467.34813 L 355.00345,469.55379 L 354.32983,469.55379 L 354.32983,464.67461 L 356.06821,464.67461 C 356.89395,464.67461 357.71968,464.93082 357.71968,465.8944 C 357.71968,466.48481 357.372,466.93597 356.80703,467.06964 L 356.80703,467.08078 C 357.39373,467.2256 357.48065,467.53751 357.54584,468.08335 C 357.63276,468.5735 357.67622,469.0915 357.85006,469.55379 L 357.13297,469.55379 C 357.06778,469.25859 357.0026,468.94111 356.95914,468.65148 C 356.91568,468.21703 356.91568,467.816 356.67665,467.57093 C 356.48108,467.34813 356.22032,467.37041 355.93783,467.34813"
         id="path2860"
         style="fill:#231f20;fill-opacity:1;fill-rule:nonzero;stroke:none" />
      <path
         d="M 185.81496,486.60867 L 183.16392,482.02468 C 180.62152,481.58466 177.99221,481.34516 175.31944,481.34516 C 171.60364,481.34516 167.99649,481.80189 164.56318,482.68749 C 161.15159,483.58424 157.50098,484.06325 153.80691,484.06325 C 152.48139,484.06325 151.19933,484.00755 149.91727,483.87387 L 164.54145,458.53664 L 173.38549,473.8203 C 170.34331,473.95397 167.43151,474.39399 164.56318,475.12364 C 162.47711,475.65835 160.34759,476.0371 158.1746,476.25432 L 155.50184,480.86615 C 158.6092,480.74362 161.65138,480.27575 164.56318,479.55167 C 167.99649,478.66049 171.60364,478.1982 175.31944,478.1982 C 177.29686,478.1982 179.27427,478.33187 181.1865,478.58252 L 178.38335,473.73118 L 171.12559,461.18231 L 164.56318,449.79197 L 143.02891,487.07653 C 146.46222,488.01784 150.06938,488.469 153.80691,488.469 C 157.50098,488.469 161.15159,488.01784 164.56318,487.07653 C 167.99649,486.22992 171.60364,485.73977 175.31944,485.73977 C 179.03525,485.73977 182.6424,486.22992 186.09744,487.07653"
         id="path2862"
         style="fill:#1378c7;fill-opacity:1;fill-rule:nonzero;stroke:none" />
    </g>
  </g>
</svg>
