<svg xmlns="http://www.w3.org/2000/svg" width="171" height="28" viewBox="0 0 171 28" fill="none"><g clip-path="url(#clip0_239_1525)"><path d="M0 16.292V0H8.08896V16.1072C8.08896 19.8348 11.1301 21.3262 16.2873 21.3262C21.4444 21.3262 24.4457 19.7982 24.4457 16.0688V0H32.3472V16.2554C32.3472 23.8241 26.7821 28 16.204 28C5.62582 28 0 23.8241 0 16.292Z" fill="white"></path><path d="M38.4766 0H47.456L62.8893 16.7403V0H70.6449V27.5901H62.7035L46.2305 9.87989V27.5901H38.4766V0Z" fill="white"></path><path d="M85.6358 0H77.5469V27.5901H85.6358V0Z" fill="white"></path><path d="M102.444 6.71044H90.7197V0H122.44V6.71044H110.716V27.5901H102.444V6.71044Z" fill="white"></path><path d="M171 0H156.593L152.059 4.47246L159.262 11.5684L171 0Z" fill="white"></path><path d="M152.059 23.1157L156.6 27.5899H171.007L159.255 16.0215L152.059 23.1157Z" fill="white"></path><path d="M156.996 13.7942L142.989 0H128.582L142.587 13.7942L128.582 27.5901H142.989L156.996 13.7942Z" fill="url(#paint0_linear_239_1525)"></path></g><defs><linearGradient id="paint0_linear_239_1525" x1="142.79" y1="-0.214553" x2="142.79" y2="26.3917" gradientUnits="userSpaceOnUse"><stop stop-color="#00CCFF"></stop><stop offset="1" stop-color="#A700C2"></stop></linearGradient><clipPath id="clip0_239_1525"><rect width="171" height="28" fill="white"></rect></clipPath></defs></svg>