<svg width="174" height="61" viewBox="0 0 174 61" fill="none" xmlns="http://www.w3.org/2000/svg">
<g clip-path="url(#clip0_21_294)">
<path d="M23.0571 16.8746H13.9632V21.3003C13.9632 24.2231 13.1899 27.1307 11.6433 30.0273C10.0966 32.9217 8.18741 35.471 5.91993 37.6773H0C2.56894 35.1127 4.74905 32.3275 6.53595 29.3261C8.32285 26.3202 9.21848 23.5241 9.21848 20.9311V16.8789H0V12.7481H37.9269V16.8789H27.7254V30.4423C27.7254 32.1986 29.1453 33.6186 30.9016 33.6186H39.3031L36.5179 37.721H29.8552C26.1001 37.721 23.055 34.6758 23.055 30.9207V16.8811L23.0593 16.8767L23.0571 16.8746ZM3.46458 1.12012H34.4666V5.22256H3.46458V1.12012Z" fill="white"/>
<path d="M48.933 23.863H43.5723C45.9948 23.1443 48.6927 22.2574 51.6701 21.1957C54.6476 20.1341 57.4961 19.0113 60.2136 17.8273C58.1667 16.7263 56.098 15.4003 54.0119 13.8581L51.4997 16.5057H46.305C50.7002 12.1498 53.2036 9.3384 54.9556 6.93985H59.6456C59.3464 7.40951 59.3726 7.34616 58.5927 8.44713H77.1935V11.6671H56.0216C55.8709 11.8331 55.7485 11.9794 55.659 12.1018C55.565 12.2241 55.4624 12.3421 55.351 12.4535H57.8631C59.4643 13.585 61.5112 14.769 64.0102 16.012C66.8042 14.6358 69.2246 13.1874 71.2736 11.6692H77.1913C74.7338 13.9848 71.6996 16.0797 67.9772 17.954C70.6598 19.1926 73.386 20.3329 76.1581 21.3661C78.9324 22.3994 81.4358 23.236 83.6683 23.8673H76.7959C77.578 24.088 78.146 24.42 78.4998 24.8613C78.8559 25.3025 79.0285 26.0409 79.0285 26.5106V37.1861H48.922V23.8717L48.933 23.8673V23.863ZM44.7978 1.90682L60.4954 2.01822L59.5451 0.00195312H64.4056L65.3012 2.01822H78.1372C80.4877 2.01822 82.4013 3.91216 82.421 6.26703L82.4494 9.2685H77.9166V7.53184C77.9166 6.62091 77.1782 5.88256 76.2673 5.88256H49.2694V9.26631H44.7999V1.90463L44.7978 1.90682ZM64.0692 19.8086C60.3447 21.4054 56.7862 22.6615 53.398 23.5724H73.5083C70.7144 22.6877 67.5665 21.4382 64.0692 19.8086ZM74.5154 33.2606V28.7999C74.5154 28.0746 73.9277 27.487 73.2025 27.487H53.4592V33.2628H74.5175L74.5154 33.2606Z" fill="white"/>
<path d="M92.8339 24.1096V24.0703H87.5234C89.6817 21.7263 92.0803 19.2251 94.1468 16.5622C96.2133 13.9037 97.2749 12.0207 98.4655 9.78817H89.4239V5.67699H103.835V9.22021C102.904 11.2867 101.452 13.646 99.4791 16.2935L104.169 19.9307V24.4788L99.9247 21.1693V37.7931H95.1189V21.5406C94.2975 22.5346 93.5373 23.3865 92.8273 24.1052L92.8317 24.1096H92.8339ZM92.8907 0.00390625H97.5262L99.2541 4.44276H94.6732L92.8907 0.00390625ZM111.352 26.9669C113.008 23.4674 113.838 20.7215 113.838 18.738V8.14981H118.528V18.9826C118.528 20.7193 118.062 22.7312 117.132 25.0183H121.003V30.4817C121.003 32.2336 122.423 33.6579 124.179 33.6579H131.126L128.301 37.7953H123.342C119.574 37.7953 116.522 34.7414 116.522 30.9754V26.4273C114.96 30.0404 112.798 33.8283 110.041 37.7997H105.292C107.675 34.0795 109.694 30.4664 111.352 26.9669ZM105.572 1.24687L122.346 1.25561C124.714 1.25561 126.63 3.17576 126.63 5.54373V24.4875H121.824V7.08379C121.824 6.15757 121.07 5.40393 120.144 5.40393H110.318V24.481H105.569V1.2425L105.574 1.24687H105.572Z" fill="white"/>
<path d="M140.788 33.2713C141.885 31.5477 142.437 29.8045 142.437 28.0395V24.4023C141.061 25.6169 139.794 26.6348 138.638 27.4628H133.219C134.746 26.2788 136.395 24.8239 138.162 23.1004C139.929 21.3768 141.559 19.6052 143.049 17.7877H135.622V0.879883H165.977C168.347 0.879883 170.27 2.80004 170.27 5.17238V17.7834H163.887C165.374 19.603 167.279 21.3724 169.031 23.096C170.783 24.8195 172.439 26.2722 174.001 27.4584H168.245C166.829 26.4098 165.302 25.1145 163.664 23.5722V37.7582H158.858V22.2506H162.323C160.686 20.5139 159.38 19.0241 158.412 17.7855H148.528C147.3 19.3824 146.015 20.8591 144.674 22.2113H147.132V28.164C147.132 30.0929 146.631 31.8994 145.624 33.5793C144.62 35.2592 143.407 36.6681 141.996 37.7953H136.801C138.368 36.4978 139.696 34.9905 140.795 33.2669H140.79L140.788 33.2713ZM150.646 7.95758V4.56509H140.425V7.95758H150.646ZM150.646 14.1047V10.6598H140.425V14.1047H150.646ZM165.562 7.95758V6.22529C165.562 5.30563 164.817 4.56072 163.898 4.56072H155.393V7.95321H165.56L165.564 7.95758H165.562ZM165.562 14.1047V10.6598H155.396V14.1047H165.562Z" fill="white"/>
<path d="M122.553 47H103.251L100.217 50.0495H109.8V60.9326H112.93V50.0495H119.499L122.553 47Z" fill="white"/>
<path d="M149.374 47H130.083L127.051 50.0495H146.324L149.374 47Z" fill="white"/>
<path d="M149.374 57.8877H130.083L127.051 60.9372H146.324L149.374 57.8877Z" fill="white"/>
<path d="M149.374 52.4434H130.083L127.051 55.4929H146.324L149.374 52.4434Z" fill="white"/>
<path d="M73.8008 60.9326H77.9316L85.1033 51.109L92.2006 60.9326H96.3315L86.687 47.8192C85.8831 46.7269 84.2491 46.7269 83.4452 47.8192L73.8008 60.9326Z" fill="url(#paint0_linear_21_294)"/>
<path d="M38.0024 47L31.39 52.9811L24.7798 47H20.1094L29.7888 55.7488V60.9326H31.39H32.9934V55.7488L42.6728 47H38.0024Z" fill="white"/>
<path d="M47.1777 60.9326H50.3059V50.9321L57.9363 55.3272C58.1962 55.4779 58.5152 55.4779 58.7729 55.3272L66.3836 50.9321V60.9326H69.5118V47H66.4383L58.7686 51.4891C58.5042 51.642 58.1809 51.642 57.921 51.4891L50.3081 47H47.1799V60.9326H47.1777Z" fill="white"/>
</g>
<defs>
<linearGradient id="paint0_linear_21_294" x1="73.7964" y1="53.9685" x2="96.3315" y2="53.9685" gradientUnits="userSpaceOnUse">
<stop offset="0.19" stop-color="#00D7DC"/>
<stop offset="0.79" stop-color="#8C69FA"/>
</linearGradient>
<clipPath id="clip0_21_294">
<rect width="174" height="61" fill="white"/>
</clipPath>
</defs>
</svg>
